<?xml version="1.0" standalone="no"?><!DOCTYPE svg PUBLIC "-//W3C//DTD SVG 1.1//EN" "http://www.w3.org/Graphics/SVG/1.1/DTD/svg11.dtd"><svg class="icon" width="200px" height="198.83px" viewBox="0 0 1030 1024" version="1.1" xmlns="http://www.w3.org/2000/svg"><path fill="#333333" d="M389.426434 470.716542h-212.80133a71.501247 71.501247 0 0 1-71.501247-71.075644v-212.80133a71.92685 71.92685 0 0 1 71.501247-71.501247h212.80133a71.92685 71.92685 0 0 1 71.501247 71.501247v212.80133A71.501247 71.501247 0 0 1 389.426434 470.716542z m-212.80133-313.243558a29.366584 29.366584 0 0 0-28.940981 28.940981v212.80133a28.940981 28.940981 0 0 0 28.940981 28.940981h212.80133a28.940981 28.940981 0 0 0 28.940981-28.940981v-212.80133a29.366584 29.366584 0 0 0-28.940981-28.940981zM844.82128 470.716542h-212.80133a71.501247 71.501247 0 0 1-71.501247-71.501247v-212.80133a71.92685 71.92685 0 0 1 71.501247-71.501247h212.80133a71.92685 71.92685 0 0 1 71.501247 71.501247v212.80133A71.501247 71.501247 0 0 1 844.82128 470.716542z m-212.80133-313.243558a29.366584 29.366584 0 0 0-28.940981 28.940981v212.80133a28.940981 28.940981 0 0 0 28.940981 28.940981h212.80133a28.940981 28.940981 0 0 0 28.940981-28.940981v-212.80133a29.366584 29.366584 0 0 0-28.940981-28.940981zM389.426434 911.215295h-212.80133a71.92685 71.92685 0 0 1-71.501247-71.501247v-212.80133A71.501247 71.501247 0 0 1 176.625104 555.837074h212.80133a71.501247 71.501247 0 0 1 71.501247 71.501247v212.80133a71.92685 71.92685 0 0 1-71.501247 71.075644z m-212.80133-312.817955a28.940981 28.940981 0 0 0-28.940981 28.940981v212.80133a29.366584 29.366584 0 0 0 28.940981 28.940981h212.80133a29.366584 29.366584 0 0 0 28.940981-28.940981v-212.80133a28.940981 28.940981 0 0 0-28.940981-28.940981zM844.82128 911.215295h-212.80133a71.92685 71.92685 0 0 1-71.501247-71.501247v-212.80133A71.501247 71.501247 0 0 1 632.01995 555.837074h212.80133a71.501247 71.501247 0 0 1 71.501247 71.501247v212.80133a71.92685 71.92685 0 0 1-71.501247 71.075644z m-212.80133-313.243558a28.940981 28.940981 0 0 0-28.940981 28.940981v212.80133a29.366584 29.366584 0 0 0 28.940981 28.940981h212.80133a29.366584 29.366584 0 0 0 28.940981-28.940981v-212.80133a28.940981 28.940981 0 0 0-28.940981-28.940981z" /></svg>