<?xml version="1.0" standalone="no"?><!DOCTYPE svg PUBLIC "-//W3C//DTD SVG 1.1//EN" "http://www.w3.org/Graphics/SVG/1.1/DTD/svg11.dtd"><svg class="icon" width="200px" height="200.00px" viewBox="0 0 1024 1024" version="1.1" xmlns="http://www.w3.org/2000/svg"><path fill="#333333" d="M853.333333 938.666667H170.666667a64.426667 64.426667 0 0 1-57.6-35.84 62.72 62.72 0 0 1 6.826666-66.56l151.04-202.24a21.76 21.76 0 0 1 29.866667-4.266667 21.333333 21.333333 0 0 1 4.266667 29.866667L153.6 861.866667a21.333333 21.333333 0 0 0 17.066667 34.133333h682.666666a21.333333 21.333333 0 0 0 17.066667-34.133333l-151.466667-202.24a21.333333 21.333333 0 1 1 34.133334-25.6l151.466666 202.24A64 64 0 0 1 853.333333 938.666667z"  /><path fill="#333333" d="M853.333333 668.16H170.666667a62.72 62.72 0 0 1-57.173334-35.413333 63.573333 63.573333 0 0 1 5.973334-66.986667l341.333333-454.826667A63.573333 63.573333 0 0 1 512 85.333333a63.573333 63.573333 0 0 1 51.2 25.6l341.333333 454.826667a63.573333 63.573333 0 0 1 5.973334 66.986667 62.72 62.72 0 0 1-57.173334 35.413333zM512 128a20.906667 20.906667 0 0 0-17.066667 8.533333l-341.333333 454.826667a22.613333 22.613333 0 0 0-2.133333 22.613333 21.333333 21.333333 0 0 0 19.2 11.52h682.666666a21.333333 21.333333 0 0 0 19.2-11.52 21.76 21.76 0 0 0-2.133333-22.613333l-341.333333-454.826667A20.48 20.48 0 0 0 512 128z"  /></svg>