<?xml version="1.0" standalone="no"?><!DOCTYPE svg PUBLIC "-//W3C//DTD SVG 1.1//EN" "http://www.w3.org/Graphics/SVG/1.1/DTD/svg11.dtd"><svg class="icon" width="200px" height="198.83px" viewBox="0 0 1030 1024" version="1.1" xmlns="http://www.w3.org/2000/svg"><path fill="#333333" d="M255.361596 928.665004a149.386534 149.386534 0 0 1-148.960931-148.535328v-383.042394A148.960931 148.960931 0 0 1 255.361596 247.700748h42.560266a21.280133 21.280133 0 0 1 21.280133 21.280133 21.280133 21.280133 0 0 1-21.280133 21.280133H255.361596a103.421446 103.421446 0 0 0-74.906068 31.494597 105.975062 105.975062 0 0 0-31.068994 75.331671v383.042394A106.826268 106.826268 0 0 0 255.361596 886.104738h510.723192a106.400665 106.400665 0 0 0 105.975062-106.400665v-383.042394A106.826268 106.826268 0 0 0 766.084788 288.984206h-42.560266a21.280133 21.280133 0 0 1-21.280133-20.85453 21.705736 21.705736 0 0 1 21.280133-21.705736h42.560266a149.386534 149.386534 0 0 1 148.960931 148.535328v383.042395a148.960931 148.960931 0 0 1-148.960931 149.386533H255.361596z"  /><path fill="#333333" d="M425.60266 289.835411a21.280133 21.280133 0 0 1 0-42.560266h170.241064a21.280133 21.280133 0 0 1 0 42.560266z"  /><path fill="#333333" d="M360.911056 354.101413a85.120532 85.120532 0 0 1-85.120532-85.120532v-85.120532a85.120532 85.120532 0 0 1 85.120532-85.120532 85.120532 85.120532 0 0 1 85.120532 85.120532v85.120532a85.120532 85.120532 0 0 1-24.684955 60.009975 88.099751 88.099751 0 0 1-60.009975 25.110557z m0-212.80133a42.560266 42.560266 0 0 0-42.560266 42.560266v85.120532a42.560266 42.560266 0 0 0 12.768079 29.792186 42.560266 42.560266 0 0 0 29.792187 12.76808A42.560266 42.560266 0 0 0 391.128845 300.475478a42.560266 42.560266 0 0 0 12.342477-30.217789v-85.120532a42.560266 42.560266 0 0 0-42.560266-43.837074zM658.832918 353.250208a85.120532 85.120532 0 0 1-60.009975-24.684954 85.120532 85.120532 0 0 1-25.110557-60.435578v-85.120532a85.120532 85.120532 0 0 1 85.120532-85.120532 85.120532 85.120532 0 0 1 85.120532 85.120532v85.120532a85.120532 85.120532 0 0 1-85.120532 85.120532z m0-212.80133a42.560266 42.560266 0 0 0-42.560266 42.560266v85.120532a42.560266 42.560266 0 0 0 42.560266 42.560266 42.560266 42.560266 0 0 0 42.560266-42.560266v-85.120532a42.560266 42.560266 0 0 0-42.560266-42.560266zM127.680798 503.487947a21.280133 21.280133 0 0 1 0-42.560266h766.084788a21.280133 21.280133 0 0 1 21.280133 21.280133 20.85453 20.85453 0 0 1-20.85453 21.280133h-766.084788z"  /></svg>