<?xml version="1.0" standalone="no"?><!DOCTYPE svg PUBLIC "-//W3C//DTD SVG 1.1//EN" "http://www.w3.org/Graphics/SVG/1.1/DTD/svg11.dtd"><svg class="icon" width="200px" height="200.00px" viewBox="0 0 1024 1024" version="1.1" xmlns="http://www.w3.org/2000/svg"><path fill="#333333" d="M573.201166 685.367763a21.750937 21.750937 0 1 1 21.324448-21.750937 21.750937 21.750937 0 0 1-21.324448 21.750937zM572.774677 579.598501a21.750937 21.750937 0 0 1-21.324448-21.324449 21.324448 21.324448 0 0 1 21.324448-21.324448 88.709704 88.709704 0 0 0 0-177.419408 127.946689 127.946689 0 0 0-89.562682 23.883382 103.636818 103.636818 0 0 0-29.001249 80.179925 21.750937 21.750937 0 0 1-21.324449 21.324448 21.324448 21.324448 0 0 1-21.324448-21.324448 140.741358 140.741358 0 0 1 42.648897-112.166598 165.904207 165.904207 0 0 1 120.269887-34.119117 131.358601 131.358601 0 0 1-2.985423 262.290713z"  /><path fill="#333333" d="M557.847564 863.213661a362.08913 362.08913 0 0 1-166.757185-40.516452 21.324448 21.324448 0 1 1 19.618492-37.957517 320.7197 320.7197 0 1 0-127.946689-118.137443 21.750937 21.750937 0 0 1-7.250312 29.427739 21.324448 21.324448 0 0 1-29.427738-7.250313A362.515618 362.515618 0 0 1 804.358184 234.995419a362.515618 362.515618 0 0 1-179.978342 622.247396 353.985839 353.985839 0 0 1-66.532278 5.970846z"  /><path fill="#333333" d="M226.892128 885.391087a50.325698 50.325698 0 0 1-45.20783-70.370679l64.826323-145.859225a21.324448 21.324448 0 0 1 39.236984 17.486047l-65.252811 145.859226a6.397334 6.397334 0 0 0 0 7.676801 7.250312 7.250312 0 0 0 7.676801 2.132445l164.198251-58.428988a21.324448 21.324448 0 0 1 14.500625 40.089962l-162.918784 58.428988a47.766764 47.766764 0 0 1-17.059559 2.985423z"  /></svg>