<?xml version="1.0" standalone="no"?><!DOCTYPE svg PUBLIC "-//W3C//DTD SVG 1.1//EN" "http://www.w3.org/Graphics/SVG/1.1/DTD/svg11.dtd"><svg class="icon" width="200px" height="200.00px" viewBox="0 0 1024 1024" version="1.1" xmlns="http://www.w3.org/2000/svg"><path d="M836.4 959H187.7c-63.1 0-114.5-51.4-114.5-114.5V748c0-18.4 14.9-33.4 33.4-33.4s33.4 15 33.4 33.4v96.5c0 26.3 21.4 47.7 47.7 47.7h648.7c26.3 0 47.7-21.4 47.7-47.7V289.3c0-26.3-21.4-47.7-47.7-47.7h-105c-18.4 0-33.4-15-33.4-33.4s15-33.4 33.4-33.4h105c63.1 0 114.5 51.4 114.5 114.5v555.2c-0.1 63.1-51.4 114.5-114.5 114.5zM106.6 552.4c-18.4 0-33.4-15-33.4-33.4V289.3c0-63.1 51.4-114.5 114.5-114.5h101.2c18.4 0 33.4 14.9 33.4 33.4s-14.9 33.4-33.4 33.4H187.7c-26.3 0-47.7 21.4-47.7 47.7V519c0 18.4-15 33.4-33.4 33.4z"  /><path d="M506.5 770.2L644.6 531c5.3-9.2-1.3-20.8-12-20.8H356.4c-10.7 0-17.3 11.5-12 20.8l138.1 239.2c5.3 9.3 18.7 9.3 24 0z" fill="#FE7598" /><path d="M494.5 810.5c-16.8 0-32.5-9-40.9-23.6L315.5 547.8c-8.4-14.6-8.4-32.7 0-47.2 8.4-14.6 24.1-23.6 40.9-23.6h276.2c16.8 0 32.5 9 40.9 23.6 8.4 14.6 8.4 32.7 0 47.2L535.4 786.9c-8.4 14.6-24.1 23.6-40.9 23.6z m-16.9-57z m-87.3-209.8l104.2 180.5 104.2-180.5H390.3z"  /><path d="M494.5 538.4c-18.4 0-33.4-15-33.4-33.4V98.4c0-18.4 15-33.4 33.4-33.4s33.4 14.9 33.4 33.4V505c0 18.4-15 33.4-33.4 33.4z"  /><path d="M106.5 630.1m-33.4 0a33.4 33.4 0 1 0 66.8 0 33.4 33.4 0 1 0-66.8 0Z"  /></svg>